<svg width="100" height="100" viewBox="0 0 100 100" fill="none" xmlns="http://www.w3.org/2000/svg">
<g id="js" clip-path="url(#clip0_790_8266)">
<path id="Vector" d="M100 0H0V100H100V0Z" fill="#D1D1D1"/>
<path id="Vector_2" d="M67.2 78.0999C69.2 81.3999 71.8 83.7999 76.5 83.7999C80.4 83.7999 82.9 81.8999 82.9 79.1999C82.9 75.9999 80.3 74.7999 76.1 72.9999L73.8 71.9999C67 69.0999 62.5 65.4999 62.5 57.7999C62.5 50.7999 67.9 45.3999 76.3 45.3999C82.3 45.3999 86.6 47.4999 89.7 52.8999L82.4 57.5999C80.8 54.6999 79.1 53.5999 76.4 53.5999C73.6 53.5999 71.9 55.2999 71.9 57.5999C71.9 60.3999 73.6 61.5999 77.7 63.2999L80 64.2999C88 67.6999 92.5 71.1999 92.5 79.0999C92.5 87.5999 85.9 92.1999 76.9 92.1999C68.2 92.1999 62.5 87.9999 59.8 82.5999L67.2 78.0999ZM34 78.8999C35.5 81.4999 36.8 83.6999 40 83.6999C43.1 83.6999 45 82.4999 45 77.7999V45.7999H54.4V77.9999C54.4 87.6999 48.7 92.1999 40.4 92.1999C32.9 92.1999 28.5 88.2999 26.3 83.5999L34 78.8999Z" fill="black"/>
</g>
<defs>
<clipPath id="clip0_790_8266">
<rect width="100" height="100" fill="white"/>
</clipPath>
</defs>
</svg>
